<svg width="2000px" height="1083px"
 viewBox="0.00 0.00 987.75 535.24" xmlns="http://www.w3.org/2000/svg" xmlns:xlink="http://www.w3.org/1999/xlink">
<g id="graph0" class="graph" transform="scale(1.0 1.0) rotate(0) translate(4 531.24)">
<title>ContextMapGraph</title>
<polygon fill="white" stroke="transparent" points="-4,4 -4,-531.24 983.75,-531.24 983.75,4 -4,4"/>
<!-- CatalogProductosContext -->
<g id="node1" class="node">
<title>CatalogProductosContext</title>
<polygon fill="none" stroke="black" stroke-width="2" points="45.92,-452.24 52.63,-449.91 59.69,-447.68 67.06,-445.54 74.73,-443.51 82.66,-441.58 90.83,-439.78 99.21,-438.11 107.76,-436.58 116.47,-435.19 125.29,-433.94 134.22,-432.85 143.21,-431.91 152.24,-431.13 161.29,-430.52 170.33,-430.07 179.34,-429.78 188.29,-429.66 197.16,-429.7 205.94,-429.91 214.6,-430.27 223.11,-430.79 231.48,-431.47 239.67,-432.3 247.68,-433.26 255.48,-434.37 263.06,-435.61 270.42,-436.98 277.53,-438.46 284.4,-440.06 290.99,-441.76 297.32,-443.55 303.36,-445.43 309.11,-447.39 314.56,-449.42 319.7,-451.51 324.53,-453.66 329.04,-455.85 333.22,-458.07 337.06,-460.33 340.56,-462.6 343.71,-464.89 346.51,-467.18 348.95,-469.47 351.02,-471.75 352.72,-474.02 354.05,-476.27 354.99,-478.49 355.54,-480.68 355.7,-482.84 355.47,-484.95 354.83,-487.03 353.79,-489.05 352.34,-491.03 350.47,-492.95 348.2,-494.82 345.51,-496.64 342.41,-498.39 338.89,-500.08 334.96,-501.72 330.62,-503.29 325.87,-504.79 320.72,-506.24 315.18,-507.61 309.24,-508.93 302.93,-510.18 296.25,-511.36 289.22,-512.47 281.84,-513.52 274.14,-514.49 266.13,-515.4 257.82,-516.23 249.25,-517 240.43,-517.69 231.38,-518.3 222.13,-518.84 212.71,-519.3 203.13,-519.68 193.44,-519.98 183.67,-520.19 173.83,-520.31 163.97,-520.35 154.12,-520.29 144.3,-520.14 134.56,-519.89 124.93,-519.54 115.44,-519.09 106.12,-518.54 97.01,-517.89 88.15,-517.12 79.55,-516.25 71.27,-515.27 63.32,-514.18 55.74,-512.99 48.55,-511.68 41.79,-510.26 35.47,-508.73 29.62,-507.1 24.26,-505.36 19.42,-503.53 15.1,-501.59 11.33,-499.56 8.11,-497.44 5.47,-495.24 3.39,-492.96 1.9,-490.6 1,-488.18 0.67,-485.7 0.94,-483.17 1.78,-480.6 3.19,-477.99 5.17,-475.36 7.7,-472.72 10.78,-470.07 14.37,-467.42 18.48,-464.79 23.08,-462.19 28.14,-459.62 33.65,-457.1 39.59,-454.63 45.92,-452.24"/>
<text text-anchor="middle" x="186.77" y="-474.58" font-family="sans-serif" font-size="16.00">CatalogProductosContext</text>
</g>
<!-- GestionOrdenesContext -->
<g id="node2" class="node">
<title>GestionOrdenesContext</title>
<polygon fill="none" stroke="black" stroke-width="2" points="98.77,-369.52 89.36,-368.05 80.25,-366.49 71.47,-364.84 63.07,-363.11 55.09,-361.3 47.54,-359.43 40.47,-357.49 33.91,-355.49 27.87,-353.45 22.38,-351.36 17.47,-349.23 13.15,-347.07 9.43,-344.89 6.33,-342.69 3.86,-340.48 2.02,-338.27 0.81,-336.05 0.23,-333.84 0.28,-331.63 0.95,-329.45 2.23,-327.28 4.12,-325.14 6.58,-323.03 9.61,-320.95 13.19,-318.91 17.28,-316.92 21.88,-314.96 26.95,-313.06 32.46,-311.22 38.39,-309.43 44.71,-307.7 51.38,-306.03 58.38,-304.42 65.67,-302.89 73.22,-301.43 80.99,-300.04 88.97,-298.73 97.11,-297.49 105.38,-296.34 113.77,-295.27 122.23,-294.28 130.74,-293.39 139.27,-292.58 147.81,-291.87 156.32,-291.24 164.78,-290.72 173.18,-290.29 181.49,-289.96 189.7,-289.73 197.79,-289.61 205.75,-289.59 213.56,-289.67 221.22,-289.86 228.71,-290.15 236.03,-290.56 243.17,-291.07 250.11,-291.69 256.87,-292.41 263.42,-293.25 269.77,-294.19 275.92,-295.24 281.85,-296.4 287.57,-297.66 293.08,-299.02 298.36,-300.48 303.42,-302.04 308.25,-303.7 312.85,-305.44 317.22,-307.27 321.35,-309.19 325.23,-311.18 328.85,-313.25 332.22,-315.39 335.32,-317.59 338.14,-319.84 340.68,-322.15 342.92,-324.5 344.86,-326.88 346.48,-329.3 347.77,-331.74 348.73,-334.19 349.33,-336.65 349.57,-339.1 349.43,-341.55 348.91,-343.98 347.99,-346.38 346.67,-348.75 344.92,-351.07 342.75,-353.34 340.14,-355.56 337.1,-357.71 333.6,-359.78 329.66,-361.77 325.27,-363.68 320.42,-365.48 315.13,-367.19 309.39,-368.79 303.22,-370.27 296.61,-371.64 289.59,-372.88 282.16,-374 274.35,-374.98 266.16,-375.84 257.63,-376.55 248.77,-377.13 239.61,-377.56 230.18,-377.86 220.51,-378.02 210.63,-378.03 200.57,-377.91 190.38,-377.64 180.08,-377.24 169.71,-376.71 159.33,-376.05 148.96,-375.25 138.64,-374.34 128.42,-373.3 118.35,-372.15 108.45,-370.89 98.77,-369.52"/>
<text text-anchor="middle" x="186.77" y="-328.37" font-family="sans-serif" font-size="16.00">GestionOrdenesContext</text>
</g>
<!-- CatalogProductosContext&#45;&gt;GestionOrdenesContext -->
<g id="edge1" class="edge">
<title>CatalogProductosContext&#45;&gt;GestionOrdenesContext</title>
<path fill="none" stroke="black" stroke-width="2" d="M186.77,-429.36C186.77,-412.65 186.77,-393.98 186.77,-377.58"/>
<text text-anchor="middle" x="262.27" y="-401.92" font-family="sans-serif" font-size="12.00"> &#160;&#160;&#160;&#160;&#160;&#160;&#160;&#160;&#160;&#160;&#160;&#160;&#160;&#160;&#160;&#160;&#160;&#160;&#160;&#160;&#160;&#160;&#160;&#160;&#160;&#160;&#160;&#160;&#160;&#160;&#160;&#160;&#160;&#160;&#160;&#160;&#160;&#160;&#160;</text>
<polygon fill="white" stroke="transparent" points="179.77,-368.58 179.77,-385.58 193.77,-385.58 193.77,-368.58 179.77,-368.58"/>
<text text-anchor="start" x="181.77" y="-373.98" font-family="sans-serif" font-size="12.00">D</text>
<polygon fill="white" stroke="transparent" points="162.77,-419.36 162.77,-438.36 178.77,-438.36 178.77,-419.36 162.77,-419.36"/>
<polyline fill="none" stroke="black" points="178.77,-419.36 178.77,-438.36 "/>
<text text-anchor="start" x="165.77" y="-425.76" font-family="sans-serif" font-size="12.00">U</text>
<polygon fill="white" stroke="transparent" points="178.77,-419.36 178.77,-438.36 211.77,-438.36 211.77,-419.36 178.77,-419.36"/>
<polygon fill="none" stroke="black" points="178.77,-419.36 178.77,-438.36 211.77,-438.36 211.77,-419.36 178.77,-419.36"/>
<text text-anchor="start" x="181.77" y="-425.76" font-family="sans-serif" font-size="12.00">OHS</text>
</g>
<!-- GestionClientesContext -->
<g id="node3" class="node">
<title>GestionClientesContext</title>
<polygon fill="none" stroke="black" stroke-width="2" points="774.16,-191.85 772.88,-194.7 771.15,-197.51 768.98,-200.28 766.38,-202.99 763.35,-205.64 759.9,-208.2 756.05,-210.68 751.8,-213.07 747.16,-215.34 742.15,-217.5 736.78,-219.54 731.07,-221.46 725.03,-223.23 718.69,-224.87 712.04,-226.36 705.13,-227.7 697.95,-228.89 690.54,-229.93 682.91,-230.82 675.09,-231.55 667.09,-232.12 658.93,-232.54 650.65,-232.81 642.26,-232.93 633.77,-232.91 625.23,-232.74 616.64,-232.44 608.04,-232 599.44,-231.43 590.87,-230.74 582.35,-229.94 573.9,-229.02 565.55,-228 557.32,-226.88 549.23,-225.67 541.31,-224.38 533.57,-223.01 526.03,-221.56 518.72,-220.05 511.65,-218.49 504.84,-216.86 498.32,-215.19 492.1,-213.48 486.2,-211.73 480.63,-209.95 475.41,-208.14 470.56,-206.31 466.08,-204.45 461.99,-202.58 458.3,-200.7 455.02,-198.81 452.16,-196.91 449.73,-195 447.74,-193.09 446.19,-191.17 445.09,-189.26 444.43,-187.34 444.23,-185.43 444.48,-183.53 445.19,-181.62 446.34,-179.73 447.95,-177.84 450,-175.96 452.49,-174.09 455.42,-172.23 458.77,-170.38 462.54,-168.56 466.72,-166.74 471.29,-164.95 476.25,-163.19 481.57,-161.45 487.26,-159.74 493.28,-158.07 499.63,-156.43 506.29,-154.84 513.23,-153.29 520.45,-151.8 527.91,-150.36 535.6,-148.99 543.5,-147.69 551.59,-146.47 559.84,-145.32 568.23,-144.27 576.73,-143.3 585.33,-142.44 594,-141.68 602.71,-141.03 611.44,-140.5 620.17,-140.1 628.86,-139.82 637.51,-139.67 646.08,-139.66 654.54,-139.8 662.89,-140.07 671.08,-140.49 679.1,-141.07 686.93,-141.79 694.54,-142.66 701.92,-143.68 709.04,-144.86 715.88,-146.18 722.43,-147.64 728.66,-149.25 734.56,-151 740.12,-152.89 745.31,-154.9 750.13,-157.03 754.56,-159.28 758.58,-161.64 762.2,-164.09 765.39,-166.64 768.15,-169.26 770.48,-171.96 772.36,-174.71 773.79,-177.51 774.77,-180.35 775.3,-183.22 775.38,-186.1 775,-188.98 774.16,-191.85"/>
<text text-anchor="middle" x="609.77" y="-182.21" font-family="sans-serif" font-size="16.00">GestionClientesContext</text>
</g>
<!-- GestionOrdenesContext&#45;&gt;GestionClientesContext -->
<g id="edge2" class="edge">
<title>GestionOrdenesContext&#45;&gt;GestionClientesContext</title>
<path fill="none" stroke="black" stroke-width="2" d="M286.21,-297.28C355.33,-273.73 446.89,-242.52 514.97,-219.32"/>
<text text-anchor="middle" x="445.27" y="-256.23" font-family="sans-serif" font-size="12.00">Partnership</text>
</g>
<!-- GestionPagosContext -->
<g id="node5" class="node">
<title>GestionPagosContext</title>
<polygon fill="none" stroke="black" stroke-width="2" points="322.77,-165.89 327.5,-168.41 331.83,-170.98 335.73,-173.57 339.19,-176.17 342.19,-178.79 344.72,-181.41 346.76,-184.02 348.32,-186.61 349.36,-189.17 349.9,-191.7 349.92,-194.17 349.43,-196.6 348.41,-198.96 346.89,-201.26 344.85,-203.49 342.3,-205.63 339.26,-207.69 335.73,-209.66 331.74,-211.54 327.28,-213.32 322.38,-215 317.06,-216.57 311.33,-218.05 305.23,-219.42 298.76,-220.68 291.97,-221.84 284.86,-222.89 277.48,-223.83 269.84,-224.67 261.98,-225.41 253.93,-226.04 245.71,-226.57 237.35,-227 228.89,-227.33 220.35,-227.57 211.77,-227.71 203.17,-227.76 194.58,-227.72 186.03,-227.6 177.54,-227.39 169.15,-227.09 160.88,-226.71 152.75,-226.26 144.79,-225.72 137.01,-225.11 129.45,-224.42 122.1,-223.66 115.01,-222.82 108.17,-221.92 101.62,-220.94 95.35,-219.89 89.38,-218.76 83.73,-217.57 78.4,-216.31 73.39,-214.99 68.73,-213.59 64.41,-212.13 60.43,-210.6 56.8,-209 53.53,-207.34 50.61,-205.61 48.05,-203.83 45.84,-201.98 43.98,-200.08 42.47,-198.12 41.32,-196.1 40.51,-194.04 40.04,-191.93 39.92,-189.77 40.14,-187.58 40.69,-185.35 41.56,-183.1 42.77,-180.82 44.3,-178.52 46.15,-176.21 48.31,-173.9 50.77,-171.59 53.55,-169.29 56.62,-167 59.99,-164.74 63.66,-162.52 67.6,-160.34 71.83,-158.2 76.34,-156.13 81.11,-154.12 86.15,-152.19 91.44,-150.34 96.99,-148.59 102.78,-146.94 108.8,-145.39 115.04,-143.97 121.51,-142.66 128.17,-141.49 135.03,-140.45 142.07,-139.55 149.28,-138.81 156.65,-138.21 164.15,-137.77 171.77,-137.49 179.51,-137.37 187.32,-137.41 195.21,-137.62 203.15,-137.99 211.11,-138.53 219.08,-139.23 227.03,-140.08 234.94,-141.1 242.79,-142.26 250.55,-143.58 258.2,-145.04 265.7,-146.63 273.04,-148.36 280.19,-150.21 287.13,-152.17 293.82,-154.24 300.24,-156.42 306.37,-158.67 312.19,-161.01 317.66,-163.42 322.77,-165.89"/>
<text text-anchor="middle" x="186.77" y="-182.21" font-family="sans-serif" font-size="16.00">GestionPagosContext</text>
</g>
<!-- GestionOrdenesContext&#45;&gt;GestionPagosContext -->
<g id="edge3" class="edge">
<title>GestionOrdenesContext&#45;&gt;GestionPagosContext</title>
<path fill="none" stroke="black" stroke-width="2" d="M186.77,-289.48C186.77,-270.02 186.77,-246.94 186.77,-227.62"/>
<text text-anchor="middle" x="221.27" y="-256.23" font-family="sans-serif" font-size="12.00">Partnership</text>
</g>
<!-- GestionEnviosContext -->
<g id="node4" class="node">
<title>GestionEnviosContext</title>
<polygon fill="none" stroke="black" stroke-width="2" points="616.23,-88.09 605.98,-88.25 595.77,-88.29 585.65,-88.2 575.66,-87.99 565.83,-87.66 556.21,-87.21 546.83,-86.63 537.73,-85.93 528.94,-85.12 520.5,-84.19 512.42,-83.14 504.74,-81.98 497.49,-80.71 490.67,-79.33 484.32,-77.86 478.45,-76.28 473.06,-74.62 468.18,-72.86 463.81,-71.02 459.95,-69.1 456.6,-67.11 453.77,-65.05 451.46,-62.93 449.65,-60.76 448.34,-58.54 447.53,-56.28 447.19,-53.98 447.32,-51.65 447.9,-49.31 448.92,-46.95 450.36,-44.58 452.2,-42.21 454.42,-39.85 457.01,-37.5 459.95,-35.18 463.2,-32.88 466.77,-30.62 470.62,-28.4 474.74,-26.22 479.11,-24.1 483.71,-22.04 488.52,-20.04 493.54,-18.12 498.73,-16.27 504.1,-14.51 509.62,-12.83 515.29,-11.24 521.08,-9.74 527,-8.35 533.04,-7.06 539.18,-5.87 545.41,-4.79 551.74,-3.82 558.15,-2.97 564.65,-2.23 571.22,-1.61 577.85,-1.11 584.56,-0.72 591.33,-0.45 598.15,-0.31 605.03,-0.28 611.95,-0.37 618.92,-0.58 625.93,-0.9 632.96,-1.35 640.02,-1.9 647.09,-2.57 654.16,-3.34 661.22,-4.23 668.26,-5.22 675.27,-6.31 682.23,-7.49 689.13,-8.78 695.94,-10.15 702.66,-11.61 709.25,-13.16 715.7,-14.79 721.98,-16.49 728.08,-18.26 733.97,-20.1 739.63,-22 745.02,-23.96 750.13,-25.96 754.92,-28.02 759.38,-30.12 763.48,-32.25 767.19,-34.42 770.5,-36.61 773.37,-38.82 775.78,-41.04 777.72,-43.28 779.16,-45.51 780.09,-47.75 780.49,-49.98 780.35,-52.19 779.65,-54.39 778.4,-56.56 776.57,-58.71 774.18,-60.81 771.22,-62.88 767.68,-64.9 763.58,-66.86 758.93,-68.77 753.74,-70.62 748.01,-72.4 741.77,-74.11 735.04,-75.74 727.84,-77.29 720.19,-78.75 712.13,-80.12 703.68,-81.4 694.88,-82.58 685.76,-83.66 676.36,-84.63 666.71,-85.49 656.86,-86.24 646.85,-86.88 636.71,-87.4 626.49,-87.8 616.23,-88.09"/>
<text text-anchor="middle" x="609.77" y="-40.29" font-family="sans-serif" font-size="16.00">GestionEnviosContext</text>
</g>
<!-- GestionClientesContext&#45;&gt;GestionEnviosContext -->
<g id="edge4" class="edge">
<title>GestionClientesContext&#45;&gt;GestionEnviosContext</title>
<path fill="none" stroke="black" stroke-width="2" d="M609.77,-140.35C609.77,-123.72 609.77,-104.88 609.77,-88.37"/>
<text text-anchor="middle" x="644.27" y="-109.59" font-family="sans-serif" font-size="12.00">Partnership</text>
</g>
<!-- GestionAutarizacionAutenticacionContext -->
<g id="node6" class="node">
<title>GestionAutarizacionAutenticacionContext</title>
<polygon fill="none" stroke="black" stroke-width="2" points="867.65,-364.54 854.8,-366.5 841.52,-368.35 827.87,-370.1 813.9,-371.73 799.67,-373.24 785.22,-374.62 770.61,-375.86 755.89,-376.96 741.11,-377.91 726.32,-378.71 711.57,-379.36 696.89,-379.85 682.34,-380.18 667.96,-380.36 653.78,-380.37 639.85,-380.22 626.19,-379.91 612.85,-379.45 599.84,-378.83 587.2,-378.06 574.95,-377.14 563.12,-376.08 551.72,-374.88 540.78,-373.55 530.3,-372.09 520.31,-370.51 510.81,-368.82 501.82,-367.03 493.34,-365.14 485.37,-363.15 477.94,-361.09 471.03,-358.96 464.65,-356.76 458.81,-354.51 453.5,-352.21 448.73,-349.88 444.5,-347.52 440.81,-345.13 437.66,-342.74 435.05,-340.34 432.98,-337.95 431.45,-335.56 430.47,-333.2 430.02,-330.86 430.12,-328.55 430.77,-326.29 431.96,-324.06 433.7,-321.88 435.99,-319.76 438.84,-317.69 442.24,-315.69 446.19,-313.75 450.71,-311.88 455.78,-310.08 461.41,-308.36 467.6,-306.71 474.35,-305.13 481.65,-303.64 489.5,-302.22 497.9,-300.89 506.84,-299.64 516.31,-298.47 526.3,-297.38 536.8,-296.37 547.8,-295.45 559.27,-294.61 571.19,-293.85 583.56,-293.17 596.34,-292.58 609.5,-292.07 623.01,-291.65 636.86,-291.31 650.99,-291.05 665.37,-290.88 679.97,-290.79 694.73,-290.79 709.63,-290.87 724.6,-291.04 739.61,-291.3 754.61,-291.64 769.53,-292.08 784.34,-292.61 798.98,-293.22 813.39,-293.93 827.53,-294.73 841.33,-295.62 854.74,-296.6 867.72,-297.68 880.21,-298.85 892.15,-300.12 903.51,-301.47 914.23,-302.92 924.26,-304.46 933.58,-306.08 942.12,-307.8 949.87,-309.59 956.77,-311.47 962.82,-313.43 967.97,-315.47 972.21,-317.57 975.52,-319.74 977.88,-321.98 979.29,-324.26 979.73,-326.6 979.21,-328.98 977.74,-331.4 975.31,-333.85 971.94,-336.32 967.64,-338.81 962.44,-341.3 956.36,-343.78 949.43,-346.26 941.68,-348.71 933.14,-351.14 923.85,-353.52 913.85,-355.86 903.18,-358.14 891.9,-360.35 880.04,-362.49 867.65,-364.54"/>
<text text-anchor="middle" x="685.77" y="-328.37" font-family="sans-serif" font-size="16.00">GestionAutarizacionAutenticacionContext</text>
</g>
<!-- GestionAutarizacionAutenticacionContext&#45;&gt;GestionClientesContext -->
<g id="edge5" class="edge">
<title>GestionAutarizacionAutenticacionContext&#45;&gt;GestionClientesContext</title>
<path fill="none" stroke="black" stroke-width="2" d="M664.4,-290.63C654.96,-272.73 643.81,-251.59 634.06,-233.09"/>
<text text-anchor="middle" x="725.27" y="-256.23" font-family="sans-serif" font-size="12.00"> &#160;&#160;&#160;&#160;&#160;&#160;&#160;&#160;&#160;&#160;&#160;&#160;&#160;&#160;&#160;&#160;&#160;&#160;&#160;&#160;&#160;&#160;&#160;&#160;&#160;&#160;&#160;&#160;&#160;&#160;&#160;&#160;&#160;&#160;&#160;&#160;&#160;&#160;&#160;</text>
<polygon fill="white" stroke="transparent" points="615.06,-223.09 615.06,-242.09 631.06,-242.09 631.06,-223.09 615.06,-223.09"/>
<polyline fill="none" stroke="black" points="631.06,-223.09 631.06,-242.09 "/>
<text text-anchor="start" x="618.06" y="-229.49" font-family="sans-serif" font-size="12.00">D</text>
<polygon fill="white" stroke="transparent" points="631.06,-223.09 631.06,-242.09 653.06,-242.09 653.06,-223.09 631.06,-223.09"/>
<polygon fill="none" stroke="black" points="631.06,-223.09 631.06,-242.09 653.06,-242.09 653.06,-223.09 631.06,-223.09"/>
<text text-anchor="start" x="634.06" y="-229.49" font-family="sans-serif" font-size="12.00">CF</text>
<polygon fill="white" stroke="transparent" points="646.4,-280.63 646.4,-299.63 662.4,-299.63 662.4,-280.63 646.4,-280.63"/>
<polyline fill="none" stroke="black" points="662.4,-280.63 662.4,-299.63 "/>
<text text-anchor="start" x="649.4" y="-287.03" font-family="sans-serif" font-size="12.00">U</text>
<polygon fill="white" stroke="transparent" points="662.4,-280.63 662.4,-299.63 683.4,-299.63 683.4,-280.63 662.4,-280.63"/>
<polygon fill="none" stroke="black" points="662.4,-280.63 662.4,-299.63 683.4,-299.63 683.4,-280.63 662.4,-280.63"/>
<text text-anchor="start" x="665.4" y="-287.03" font-family="sans-serif" font-size="12.00">PL</text>
</g>
</g>
</svg>
